<svg width="24" height="25" viewBox="0 0 24 25" fill="none" xmlns="http://www.w3.org/2000/svg">
<path d="M4.38226 0.450195C1.95468 0.450195 0 2.40487 0 4.83244V20.0679C0 22.4955 1.95468 24.4502 4.38226 24.4502H12.6398V15.0677H10.1588V11.6897H12.6398V8.80369C12.6398 6.53629 14.1057 4.45444 17.4825 4.45444C18.8497 4.45444 19.8608 4.5857 19.8608 4.5857L19.7813 7.7402C19.7813 7.7402 18.7501 7.73046 17.625 7.73046C16.4073 7.73046 16.212 8.29153 16.212 9.22297V11.6897H19.878L19.7183 15.0677H16.212V24.4502H19.6177C22.0453 24.4502 24 22.4955 24 20.0679V4.83247C24 2.4049 22.0453 0.450219 19.6177 0.450219H4.38223L4.38226 0.450195Z" fill="white"/>
</svg>
