<svg width="221" height="162" viewBox="0 0 221 162" fill="none" xmlns="http://www.w3.org/2000/svg">
<path fill-rule="evenodd" clip-rule="evenodd" d="M63.0845 28.2325C39.1674 39.1651 21.6458 65.1685 21.6458 96.1769C21.6458 127.856 34.6095 152.274 53.1936 173.2C68.5104 190.448 87.0519 204.742 105.135 218.683C109.429 221.994 113.698 225.285 117.892 228.591C125.476 234.569 132.241 239.816 138.761 243.627C145.285 247.439 150.537 249.18 155 249.18C159.463 249.18 164.715 247.439 171.239 243.627C177.759 239.816 184.524 234.569 192.108 228.591C196.302 225.285 200.571 221.994 204.865 218.683C222.948 204.742 241.49 190.448 256.806 173.2C275.39 152.274 288.354 127.856 288.354 96.1769C288.354 65.1685 270.833 39.1651 246.915 28.2325C223.68 17.6115 192.459 20.4242 162.79 51.2493C160.752 53.367 157.939 54.5637 155 54.5637C152.061 54.5637 149.248 53.367 147.21 51.2493C117.541 20.4242 86.32 17.6115 63.0845 28.2325ZM155 28.7316C121.668 -1.0903 84.3433 -5.26209 54.0943 8.56482C22.1463 23.1684 0.020813 57.0779 0.020813 96.1769C0.020813 134.605 16.0305 163.92 37.0243 187.56C53.8364 206.491 74.414 222.335 92.5877 236.328C96.7074 239.5 100.704 242.577 104.504 245.574C111.889 251.395 119.817 257.603 127.851 262.298C135.881 266.99 145.047 270.805 155 270.805C164.953 270.805 174.119 266.99 182.149 262.298C190.183 257.603 198.111 251.395 205.496 245.574C209.296 242.577 213.293 239.5 217.412 236.328C235.586 222.335 256.164 206.491 272.976 187.56C293.969 163.92 309.979 134.605 309.979 96.1769C309.979 57.0779 287.854 23.1684 255.906 8.56482C225.657 -5.26209 188.332 -1.0903 155 28.7316Z" fill="#1C274C"/>
</svg>
