<svg width="25" height="25" viewBox="0 0 25 25" fill="none" xmlns="http://www.w3.org/2000/svg">
<path d="M12.5 9.5927C11.9113 9.59291 11.336 9.76068 10.8466 10.0748C10.3573 10.3889 9.97593 10.8353 9.75081 11.3574C9.52569 11.8796 9.46691 12.4541 9.58188 13.0083C9.69686 13.5626 9.98044 14.0716 10.3968 14.4711C10.8131 14.8707 11.3435 15.1427 11.9208 15.2529C12.4982 15.363 13.0966 15.3064 13.6405 15.0901C14.1843 14.8738 14.6491 14.5075 14.9761 14.0376C15.3031 13.5677 15.4777 13.0153 15.4777 12.4502C15.4771 11.6923 15.1631 10.9657 14.6048 10.4299C14.0465 9.89409 13.2894 9.59298 12.5 9.5927ZM19.4593 7.39627C19.3077 7.02761 19.0789 6.69278 18.787 6.41254C18.4951 6.1323 18.1463 5.91263 17.7623 5.76716C16.5904 5.32305 13.8002 5.4227 12.5 5.4227C11.1998 5.4227 8.41239 5.3193 7.23717 5.76716C6.85315 5.91263 6.50436 6.1323 6.21245 6.41254C5.92053 6.69278 5.69171 7.02761 5.54018 7.39627C5.07812 8.52127 5.18136 11.2025 5.18136 12.4497C5.18136 13.6968 5.07812 16.3748 5.54241 17.5036C5.69394 17.8722 5.92276 18.2071 6.21468 18.4873C6.5066 18.7676 6.85538 18.9872 7.2394 19.1327C8.41127 19.5768 11.2015 19.4772 12.5022 19.4772C13.803 19.4772 16.5893 19.5806 17.7645 19.1327C18.1485 18.9872 18.4973 18.7676 18.7892 18.4873C19.0811 18.2071 19.31 17.8722 19.4615 17.5036C19.9275 16.3786 19.8203 13.6973 19.8203 12.4502C19.8203 11.2031 19.9275 8.52555 19.4615 7.3968L19.4593 7.39627ZM12.5 16.8431C11.595 16.8431 10.7103 16.5854 9.95777 16.1027C9.20527 15.62 8.61876 14.934 8.27243 14.1313C7.92609 13.3286 7.83547 12.4453 8.01203 11.5932C8.18859 10.7411 8.6244 9.95833 9.26435 9.34398C9.9043 8.72962 10.7197 8.31124 11.6073 8.14175C12.4949 7.97225 13.415 8.05924 14.2511 8.39172C15.0873 8.72421 15.8019 9.28725 16.3047 10.0097C16.8075 10.7321 17.0759 11.5814 17.0759 12.4502C17.0766 13.0273 16.9588 13.5988 16.7291 14.1321C16.4994 14.6654 16.1623 15.1499 15.7373 15.558C15.3122 15.966 14.8075 16.2896 14.252 16.5101C13.6965 16.7306 13.1011 16.8438 12.5 16.8431ZM17.2645 8.89841C17.0532 8.89852 16.8467 8.83847 16.671 8.72587C16.4952 8.61326 16.3583 8.45316 16.2773 8.26581C16.1964 8.07846 16.1752 7.87228 16.2163 7.67334C16.2575 7.47441 16.3592 7.29166 16.5085 7.1482C16.6579 7.00475 16.8482 6.90704 17.0554 6.86744C17.2626 6.82783 17.4774 6.8481 17.6726 6.92569C17.8678 7.00329 18.0346 7.13471 18.152 7.30334C18.2694 7.47197 18.332 7.67023 18.332 7.87305C18.3326 8.00774 18.3055 8.14121 18.2522 8.26581C18.199 8.39041 18.1206 8.50369 18.0216 8.59916C17.9227 8.69462 17.805 8.77038 17.6755 8.8221C17.5459 8.87382 17.407 8.90048 17.2667 8.90055L17.2645 8.89841ZM22.3214 0.450195H2.67857C1.96817 0.450195 1.28686 0.721113 0.784535 1.20335C0.282206 1.68559 0 2.33964 0 3.02162L0 21.8788C0 22.5608 0.282206 23.2148 0.784535 23.697C1.28686 24.1793 1.96817 24.4502 2.67857 24.4502H22.3214C23.0318 24.4502 23.7131 24.1793 24.2155 23.697C24.7178 23.2148 25 22.5608 25 21.8788V3.02162C25 2.33964 24.7178 1.68559 24.2155 1.20335C23.7131 0.721113 23.0318 0.450195 22.3214 0.450195ZM21.3661 15.9859C21.2941 17.3589 20.9676 18.5756 19.9235 19.5752C18.8795 20.5748 17.6133 20.8947 16.1847 20.96C14.7109 21.0398 10.2924 21.0398 8.81864 20.96C7.38839 20.8909 6.12556 20.577 5.0798 19.5752C4.03404 18.5734 3.70536 17.3563 3.63728 15.9859C3.55413 14.5706 3.55413 10.3282 3.63728 8.91448C3.70926 7.54145 4.03181 6.32484 5.0798 5.3252C6.12779 4.32555 7.39397 4.00948 8.81864 3.94412C10.2924 3.8643 14.7109 3.8643 16.1847 3.94412C17.615 4.01323 18.8817 4.32716 19.9235 5.32895C20.9654 6.33073 21.298 7.54787 21.3661 8.92091C21.4492 10.3309 21.4492 14.5695 21.3661 15.9859Z" fill="white"/>
</svg>
