<svg width="207" height="191" viewBox="0 0 207 191" fill="none" xmlns="http://www.w3.org/2000/svg">
<path d="M185.607 134.318C189.584 129.864 189.197 123.029 184.743 119.052C180.289 115.074 173.453 115.461 169.476 119.916L126.054 168.549L113.524 154.516C109.547 150.061 102.711 149.674 98.257 153.652C93.8026 157.629 93.4157 164.464 97.3929 168.918L117.988 191.985C120.04 194.283 122.973 195.596 126.054 195.596C129.134 195.596 132.068 194.283 134.119 191.985L185.607 134.318Z" fill="#1C274C"/>
<path fill-rule="evenodd" clip-rule="evenodd" d="M141.5 0.971191C127.984 0.971191 115.079 5.39109 94.2622 12.5206L83.7749 16.1107C62.4191 23.4208 45.9377 29.0624 34.1395 33.8554C28.1963 36.2698 23.0868 38.6083 18.9725 40.9977C15.0131 43.2971 11.041 46.1651 8.34236 50.0101C5.67488 53.8106 4.29563 58.4828 3.4289 62.9804C2.52783 67.6563 1.98449 73.2655 1.63381 79.7058C0.9375 92.4934 0.9375 110.012 0.9375 132.734V155.826C0.9375 243.783 67.3699 285.953 106.876 303.21L107.267 303.381C112.165 305.522 116.77 307.534 122.061 308.888C127.647 310.318 133.581 310.93 141.5 310.93C149.419 310.93 155.353 310.318 160.939 308.888C166.23 307.534 170.834 305.522 175.733 303.381L176.124 303.21C215.63 285.953 282.062 243.783 282.062 155.826V132.737C282.063 110.013 282.063 92.4939 281.366 79.7058C281.016 73.2655 280.472 67.6563 279.571 62.9804C278.704 58.4828 277.325 53.8106 274.658 50.0101C271.959 46.1651 267.987 43.2971 264.027 40.9977C259.913 38.6083 254.804 36.2698 248.86 33.8554C237.062 29.0624 220.581 23.4208 199.225 16.1106L188.738 12.5206C167.921 5.3911 155.016 0.971191 141.5 0.971191ZM99.4122 33.6148C122.688 25.6473 132.018 22.5962 141.5 22.5962C150.982 22.5962 160.312 25.6473 183.588 33.6148L191.846 36.4416C213.652 43.906 229.556 49.3542 240.721 53.8903C246.295 56.1544 250.333 58.0518 253.167 59.6979C254.567 60.5106 255.531 61.1812 256.175 61.7047C256.72 62.1481 256.929 62.3994 256.959 62.4364C256.987 62.4813 257.166 62.7807 257.418 63.4896C257.706 64.2985 258.026 65.4582 258.337 67.0724C258.966 70.3398 259.444 74.828 259.773 80.8816C260.434 93.0088 260.438 109.937 260.438 133.124V155.826C260.438 230.434 204.646 267.153 167.467 283.394C162.112 285.733 159.019 287.057 155.576 287.939C152.288 288.78 148.276 289.305 141.5 289.305C134.724 289.305 130.712 288.78 127.424 287.939C123.981 287.057 120.888 285.733 115.533 283.393C78.3535 267.153 22.5625 230.433 22.5625 155.826V133.124C22.5625 109.937 22.5665 93.0088 23.2268 80.8816C23.5564 74.828 24.0336 70.3398 24.6632 67.0724C24.9743 65.4582 25.2937 64.2985 25.5818 63.4896C25.8341 62.7813 26.0132 62.4817 26.0411 62.4365C26.0709 62.3998 26.2791 62.1485 26.8251 61.7047C27.469 61.1812 28.4333 60.5106 29.8326 59.6979C32.6672 58.0518 36.7053 56.1544 42.2786 53.8903C53.4444 49.3542 69.3476 43.906 91.1542 36.4416L99.4122 33.6148Z" fill="#1C274C"/>
</svg>
