<svg width="45" height="50" viewBox="0 0 45 50" fill="none" xmlns="http://www.w3.org/2000/svg">
<path fill-rule="evenodd" clip-rule="evenodd" d="M1.8243 8.08745C0.904602 9.3978 0.904602 13.2928 0.904602 21.0827V24.9189C0.904602 38.6543 11.2315 45.3199 17.7108 48.1502C19.4684 48.918 20.3472 49.3019 22.8303 49.3019C25.3134 49.3019 26.1922 48.918 27.9498 48.1502C34.4291 45.3199 44.756 38.6543 44.756 24.9189V21.0827C44.756 13.2928 44.756 9.3978 43.8363 8.08745C42.9166 6.7771 39.2543 5.52348 31.9297 3.01624L30.5342 2.53857C26.716 1.23161 24.807 0.578125 22.8303 0.578125C20.8536 0.578125 18.9445 1.2316 15.1264 2.53856L13.7309 3.01624C6.4063 5.52348 2.744 6.7771 1.8243 8.08745ZM30.2837 21.2845C30.9558 20.5318 30.8904 19.3768 30.1376 18.7047C29.3849 18.0326 28.2299 18.098 27.5578 18.8507L20.2201 27.069L18.1027 24.6976C17.4307 23.9448 16.2756 23.8795 15.5229 24.5515C14.7702 25.2236 14.7048 26.3786 15.3769 27.1314L18.8571 31.0293C19.2038 31.4175 19.6996 31.6395 20.2201 31.6395C20.7406 31.6395 21.2364 31.4175 21.583 31.0293L30.2837 21.2845Z" fill="#1F3984"/>
</svg>
