<svg width="190" height="178" viewBox="0 0 190 178" fill="none" xmlns="http://www.w3.org/2000/svg">
<path fill-rule="evenodd" clip-rule="evenodd" d="M73.7562 17.2171C82.3432 -4.5555 113.157 -4.55539 121.744 17.2171L137.199 56.4037C137.622 57.4777 138.472 58.3279 139.547 58.7515L178.733 74.2064C200.506 82.7934 200.506 113.607 178.733 122.194L139.547 137.649C138.472 138.073 137.622 138.923 137.199 139.997L121.744 179.183C113.157 200.956 82.3432 200.956 73.7562 179.183L58.3013 139.997C57.8777 138.923 57.0275 138.073 55.9535 137.649L16.7669 122.194C-5.0057 113.607 -5.00558 82.7934 16.7669 74.2064L55.9535 58.7515C57.0275 58.3279 57.8777 57.4777 58.3013 56.4037L73.7562 17.2171ZM101.627 25.1511C100.239 21.6332 95.2606 21.6332 93.8732 25.1511L78.4183 64.3377C75.7966 70.985 70.5348 76.2468 63.8875 78.8684L24.7009 94.3234C21.183 95.7108 21.1831 100.69 24.7009 102.077L63.8875 117.532C70.5348 120.154 75.7966 125.415 78.4182 132.063L93.8732 171.249C95.2606 174.767 100.239 174.767 101.627 171.249L117.082 132.063C119.703 125.415 124.965 120.154 131.613 117.532L170.799 102.077C174.317 100.69 174.317 95.7108 170.799 94.3234L131.613 78.8684C124.965 76.2468 119.703 70.985 117.082 64.3377L101.627 25.1511ZM195.65 156.919C201.889 141.1 224.277 141.1 230.516 156.919L241.599 185.018L269.698 196.101C285.517 202.34 285.517 224.728 269.698 230.967L241.599 242.049L230.516 270.148C224.277 285.968 201.889 285.967 195.65 270.148L184.568 242.049L156.469 230.967C140.649 224.728 140.649 202.34 156.469 196.101L184.568 185.018L195.65 156.919ZM213.083 171.658L204.225 194.118C202.32 198.948 198.497 202.771 193.668 204.675L171.208 213.534L193.668 222.392C198.497 224.296 202.32 228.119 204.225 232.949L213.083 255.409L221.941 232.949C223.846 228.119 227.669 224.296 232.499 222.392L254.959 213.534L232.499 204.675C227.669 202.771 223.846 198.948 221.941 194.118L213.083 171.658Z" fill="#1C274C"/>
</svg>
