<svg width="60" height="60" viewBox="0 0 60 60" fill="none" xmlns="http://www.w3.org/2000/svg">
<path d="M18.8832 7.31431C19.7962 4.99939 23.0724 4.9994 23.9854 7.31431L26.8147 14.488C27.0934 15.1948 27.6529 15.7542 28.3596 16.033L35.5333 18.8623C37.8483 19.7752 37.8482 23.0514 35.5333 23.9644L28.3596 26.7937C27.6529 27.0724 27.0934 27.6319 26.8147 28.3386L23.9854 35.5124C23.0724 37.8273 19.7962 37.8273 18.8832 35.5124L16.054 28.3386C15.7752 27.6319 15.2158 27.0724 14.509 26.7937L7.33528 23.9644C5.02037 23.0514 5.02038 19.7752 7.33529 18.8623L14.509 16.033C15.2158 15.7542 15.7752 15.1948 16.054 14.488L18.8832 7.31431Z" fill="#1F3984"/>
<path d="M41.958 33.3303C42.4598 32.0582 44.2602 32.0582 44.7619 33.3303L46.9562 38.8939C47.1093 39.2823 47.4168 39.5897 47.8052 39.7429L53.3687 41.9371C54.6409 42.4388 54.6409 44.2393 53.3687 44.741L47.8052 46.9352C47.4168 47.0884 47.1093 47.3959 46.9562 47.7843L44.7619 53.3478C44.2602 54.6199 42.4598 54.6199 41.958 53.3478L39.7638 47.7843C39.6106 47.3959 39.3032 47.0884 38.9148 46.9352L33.3513 44.741C32.0791 44.2393 32.0791 42.4388 33.3513 41.9371L38.9148 39.7429C39.3032 39.5897 39.6106 39.2823 39.7638 38.8939L41.958 33.3303Z" fill="#1F3984"/>
</svg>
