<svg width="50" height="50" viewBox="0 0 50 50" fill="none" xmlns="http://www.w3.org/2000/svg">
<path fill-rule="evenodd" clip-rule="evenodd" d="M19.0956 3.84584C18.5023 4.35143 18.2057 4.60424 17.8889 4.81658C17.1626 5.30334 16.347 5.64117 15.4893 5.8105C15.1151 5.88438 14.7266 5.91538 13.9496 5.97739C11.9973 6.13318 11.0211 6.21108 10.2067 6.49874C8.32305 7.16407 6.84141 8.6457 6.17608 10.5294C5.88843 11.3438 5.81053 12.3199 5.65473 14.2722C5.59272 15.0493 5.56172 15.4378 5.48785 15.812C5.31851 16.6697 4.98068 17.4853 4.49392 18.2115C4.28158 18.5283 4.02878 18.825 3.52318 19.4183C2.25287 20.9089 1.61768 21.6543 1.24521 22.4335C0.383727 24.2359 0.383727 26.3313 1.24521 28.1337C1.61768 28.913 2.25285 29.6583 3.52318 31.149C4.02872 31.7422 4.28159 32.0389 4.49392 32.3557C4.98068 33.0819 5.31851 33.8975 5.48785 34.7553C5.56172 35.1294 5.59272 35.518 5.65473 36.295C5.81053 38.2473 5.88843 39.2235 6.17608 40.0379C6.84141 41.9215 8.32305 43.4032 10.2067 44.0685C11.0211 44.3561 11.9973 44.434 13.9496 44.5898C14.7266 44.6519 15.1151 44.6829 15.4893 44.7567C16.347 44.9261 17.1626 45.2639 17.8889 45.7507C18.2057 45.963 18.5023 46.2158 19.0956 46.7214C20.5863 47.9917 21.3316 48.6269 22.1109 48.9994C23.9133 49.8609 26.0086 49.8609 27.811 48.9994C28.5903 48.6269 29.3356 47.9917 30.8263 46.7214C31.4196 46.2158 31.7162 45.963 32.0331 45.7507C32.7593 45.2639 33.5749 44.9261 34.4326 44.7567C34.8068 44.6829 35.1953 44.6519 35.9723 44.5898C37.9246 44.434 38.9008 44.3561 39.7152 44.0685C41.5989 43.4032 43.0805 41.9215 43.7458 40.0379C44.0335 39.2235 44.1114 38.2473 44.2672 36.295C44.3292 35.518 44.3602 35.1294 44.4341 34.7553C44.6034 33.8975 44.9412 33.082 45.428 32.3557C45.6403 32.0389 45.8931 31.7423 46.3987 31.149C47.6691 29.6583 48.3042 28.913 48.6767 28.1337C49.5382 26.3313 49.5382 24.2359 48.6767 22.4335C48.3042 21.6543 47.6691 20.9089 46.3987 19.4183C45.8931 18.825 45.6403 18.5283 45.428 18.2115C44.9412 17.4853 44.6034 16.6697 44.4341 15.812C44.3602 15.4378 44.3292 15.0493 44.2672 14.2722C44.1114 12.3199 44.0335 11.3438 43.7458 10.5294C43.0805 8.6457 41.5989 7.16407 39.7152 6.49874C38.9008 6.21108 37.9246 6.13318 35.9723 5.97739C35.1953 5.91538 34.8068 5.88438 34.4326 5.8105C33.5749 5.64117 32.7593 5.30334 32.0331 4.81658C31.7162 4.60423 31.4196 4.35144 30.8263 3.84584C29.3356 2.5755 28.5903 1.94034 27.811 1.56787C26.0086 0.706381 23.9133 0.706381 22.1109 1.56787C21.3316 1.94033 20.5863 2.57552 19.0956 3.84584ZM35.6156 20.0778C36.3899 19.3035 36.3899 18.0481 35.6156 17.2738C34.8413 16.4995 33.5859 16.4995 32.8116 17.2738L20.9955 29.0899L17.1103 25.2047C16.336 24.4304 15.0806 24.4304 14.3063 25.2047C13.532 25.979 13.532 27.2344 14.3063 28.0087L19.5935 33.2959C20.3678 34.0702 21.6232 34.0702 22.3975 33.2959L35.6156 20.0778Z" fill="#1F3984"/>
</svg>
