<svg width="195" height="180" viewBox="0 0 195 180" fill="none" xmlns="http://www.w3.org/2000/svg">
<path fill-rule="evenodd" clip-rule="evenodd" d="M124.724 4.88019C137.547 -1.24847 152.453 -1.24847 165.276 4.88019C170.846 7.54269 175.95 11.8965 183.018 17.925C183.385 18.2379 183.757 18.5553 184.135 18.8772C187.567 21.8023 188.648 22.7016 189.742 23.4347C192.524 25.2993 195.648 26.5934 198.934 27.2421C200.225 27.4971 201.626 27.6255 206.121 27.9843C206.616 28.0237 207.103 28.0624 207.584 28.1006C216.845 28.8354 223.532 29.3661 229.354 31.4223C242.754 36.1555 253.295 46.6959 258.028 60.0963C260.084 65.918 260.615 72.6058 261.35 81.8662C261.388 82.3469 261.427 82.8345 261.466 83.3293C261.825 87.8246 261.953 89.2249 262.208 90.5167C262.857 93.8023 264.151 96.9266 266.016 99.7085C266.749 100.802 267.648 101.883 270.573 105.316C270.895 105.693 271.213 106.066 271.526 106.433C277.554 113.5 281.908 118.604 284.57 124.175C290.699 136.997 290.699 151.904 284.57 164.726C281.908 170.296 277.554 175.401 271.526 182.468C271.213 182.835 270.895 183.207 270.573 183.585C267.648 187.018 266.749 188.098 266.016 189.192C264.151 191.974 262.857 195.098 262.208 198.384C261.953 199.676 261.825 201.076 261.466 205.572C261.427 206.066 261.388 206.554 261.35 207.035C260.615 216.295 260.084 222.983 258.028 228.804C253.295 242.205 242.754 252.745 229.354 257.478C223.532 259.535 216.845 260.065 207.584 260.8C207.104 260.838 206.616 260.877 206.121 260.917C201.626 261.275 200.226 261.404 198.934 261.659C195.648 262.307 192.524 263.601 189.742 265.466C188.648 266.199 187.567 267.098 184.135 270.024C183.757 270.346 183.385 270.663 183.018 270.976C175.95 277.004 170.846 281.358 165.276 284.021C152.453 290.149 137.547 290.149 124.724 284.021C119.154 281.358 114.05 277.004 106.982 270.976C106.615 270.663 106.243 270.345 105.865 270.024C102.433 267.098 101.352 266.199 100.258 265.466C97.4762 263.601 94.3519 262.307 91.0663 261.659C89.7745 261.404 88.3742 261.275 83.8789 260.917C83.3841 260.877 82.8965 260.838 82.4159 260.8C73.1555 260.065 66.4676 259.535 60.646 257.478C47.2456 252.745 36.7052 242.205 31.972 228.804C29.9157 222.983 29.385 216.295 28.6502 207.035C28.6121 206.554 28.5734 206.066 28.5339 205.572C28.1752 201.076 28.0468 199.676 27.7917 198.384C27.1431 195.098 25.849 191.974 23.9844 189.192C23.2513 188.098 22.3519 187.018 19.4269 183.585C19.105 183.207 18.7876 182.835 18.4747 182.468C12.4461 175.401 8.09234 170.296 5.42983 164.726C-0.698829 151.904 -0.698829 136.997 5.42983 124.175C8.09233 118.604 12.4461 113.5 18.4746 106.432C18.7875 106.066 19.1049 105.693 19.4269 105.316C22.3519 101.883 23.2513 100.802 23.9844 99.7085C25.849 96.9266 27.1431 93.8023 27.7917 90.5167C28.0468 89.2249 28.1752 87.8246 28.5339 83.3293C28.5734 82.8345 28.6121 82.3469 28.6502 81.8662C29.385 72.6059 29.9157 65.918 31.972 60.0964C36.7052 46.6959 47.2456 36.1555 60.646 31.4223C66.4676 29.3661 73.1555 28.8354 82.4159 28.1006C82.8965 28.0624 83.3841 28.0237 83.8789 27.9843C88.3743 27.6255 89.7746 27.4971 91.0663 27.2421C94.3519 26.5934 97.4762 25.2993 100.258 23.4347C101.352 22.7016 102.433 21.8023 105.865 18.8772C106.243 18.5553 106.615 18.2379 106.982 17.925C114.05 11.8965 119.154 7.54269 124.724 4.88019ZM155.918 24.4589C149.013 21.1589 140.987 21.1589 134.082 24.4589C131.413 25.7348 128.599 28.0144 119.94 35.3936C119.798 35.5148 119.658 35.6344 119.519 35.7525C116.678 38.1751 114.603 39.9435 112.34 41.4605C107.173 44.9234 101.371 47.3267 95.2694 48.5314C92.5962 49.0591 89.879 49.2754 86.1565 49.5718C85.9751 49.5862 85.7914 49.6008 85.6051 49.6157C74.2643 50.5207 70.6628 50.8983 67.8732 51.8837C60.6576 54.4323 54.982 60.1079 52.4333 67.3235C51.448 70.1132 51.0703 73.7147 50.1653 85.0555C50.1505 85.2417 50.1359 85.4255 50.1214 85.6068C49.8251 89.3293 49.6088 92.0466 49.081 94.7198C47.8764 100.822 45.473 106.624 42.0102 111.79C40.4931 114.054 38.7247 116.128 36.302 118.97C36.184 119.108 36.0644 119.249 35.9432 119.391C28.564 128.05 26.2844 130.863 25.0086 133.533C21.7085 140.437 21.7085 148.464 25.0086 155.368C26.2844 158.037 28.564 160.851 35.9432 169.51C36.0644 169.652 36.184 169.793 36.3021 169.931C38.7247 172.773 40.4931 174.847 42.0102 177.11C45.473 182.277 47.8764 188.079 49.081 194.181C49.6088 196.854 49.8251 199.571 50.1214 203.294C50.1359 203.475 50.1505 203.659 50.1653 203.845C51.0704 215.186 51.448 218.788 52.4333 221.577C54.982 228.793 60.6576 234.468 67.8732 237.017C70.6628 238.002 74.2643 238.38 85.6051 239.285L86.1564 239.329C89.879 239.625 92.5962 239.842 95.2694 240.369C101.371 241.574 107.173 243.977 112.34 247.44C114.603 248.957 116.678 250.726 119.519 253.148L119.94 253.507C128.599 260.886 131.413 263.166 134.082 264.442C140.987 267.742 149.013 267.742 155.918 264.442C158.587 263.166 161.401 260.886 170.06 253.507L170.481 253.148C173.322 250.726 175.397 248.957 177.66 247.44C182.827 243.977 188.629 241.574 194.731 240.369C197.404 239.842 200.121 239.625 203.844 239.329L204.395 239.285C215.736 238.38 219.337 238.002 222.127 237.017C229.342 234.468 235.018 228.793 237.567 221.577C238.552 218.788 238.93 215.186 239.835 203.845L239.879 203.294C240.175 199.571 240.391 196.854 240.919 194.181C242.124 188.079 244.527 182.277 247.99 177.111C249.507 174.847 251.275 172.773 253.698 169.931L254.057 169.51C261.436 160.851 263.716 158.037 264.991 155.368C268.292 148.464 268.292 140.437 264.991 133.533C263.716 130.863 261.436 128.05 254.057 119.391L253.698 118.969C251.275 116.128 249.507 114.054 247.99 111.79C244.527 106.624 242.124 100.822 240.919 94.7198C240.391 92.0466 240.175 89.3293 239.879 85.6068L239.835 85.0555C238.93 73.7147 238.552 70.1132 237.567 67.3235C235.018 60.1079 229.342 54.4323 222.127 51.8837C219.337 50.8983 215.736 50.5207 204.395 49.6157C204.209 49.6008 204.025 49.5862 203.844 49.5718C200.121 49.2754 197.404 49.0591 194.731 48.5314C188.629 47.3267 182.827 44.9234 177.66 41.4605C175.397 39.9435 173.322 38.175 170.481 35.7523C170.342 35.6343 170.202 35.5148 170.06 35.3936C161.401 28.0144 158.587 25.7348 155.918 24.4589ZM203.306 100.611C207.543 104.848 207.543 111.718 203.306 115.956L130.972 188.29C126.735 192.527 119.865 192.527 115.628 188.29L86.694 159.356C82.4568 155.119 82.4568 148.249 86.694 144.012C90.9313 139.774 97.8012 139.774 102.038 144.012L123.3 165.273L187.962 100.611C192.199 96.374 199.069 96.374 203.306 100.611Z" fill="#1C274C"/>
</svg>
