<svg width="24" height="25" viewBox="0 0 24 25" fill="none" xmlns="http://www.w3.org/2000/svg">
<path d="M20 7.98145C19.4167 8.24186 18.7865 8.41895 18.1094 8.5127C18.8177 8.09603 19.3021 7.48665 19.5625 6.68457C18.8854 7.0804 18.1875 7.34603 17.4688 7.48145C16.8333 6.79395 16.0365 6.4502 15.0781 6.4502C14.1719 6.4502 13.3984 6.77051 12.7578 7.41113C12.1172 8.05176 11.7969 8.8252 11.7969 9.73145C11.7969 10.0335 11.8229 10.2835 11.875 10.4814C10.5312 10.4085 9.27083 10.07 8.09375 9.46582C6.91667 8.86165 5.91667 8.05436 5.09375 7.04395C4.79167 7.56478 4.64062 8.11686 4.64062 8.7002C4.64062 9.8877 5.11458 10.7992 6.0625 11.4346C5.57292 11.4242 5.05208 11.2887 4.5 11.0283V11.0596C4.5 11.8408 4.76042 12.5361 5.28125 13.1455C5.80208 13.7549 6.44271 14.1325 7.20312 14.2783C6.90104 14.3617 6.63542 14.4033 6.40625 14.4033C6.27083 14.4033 6.06771 14.3825 5.79688 14.3408C6.01562 14.9971 6.40365 15.5387 6.96094 15.9658C7.51823 16.3929 8.15104 16.6117 8.85938 16.6221C7.65104 17.5596 6.29167 18.0283 4.78125 18.0283C4.51042 18.0283 4.25 18.0127 4 17.9814C5.54167 18.9606 7.21875 19.4502 9.03125 19.4502C10.1979 19.4502 11.2917 19.2653 12.3125 18.8955C13.3333 18.5257 14.2083 18.0309 14.9375 17.4111C15.6667 16.7913 16.2943 16.0778 16.8203 15.2705C17.3464 14.4632 17.737 13.6195 17.9922 12.7393C18.2474 11.859 18.375 10.9814 18.375 10.1064C18.375 9.91895 18.3698 9.77832 18.3594 9.68457C19.0156 9.21582 19.5625 8.64811 20 7.98145ZM24 4.9502V19.9502C24 21.1898 23.5599 22.2497 22.6797 23.1299C21.7995 24.0101 20.7396 24.4502 19.5 24.4502H4.5C3.26042 24.4502 2.20052 24.0101 1.32031 23.1299C0.440104 22.2497 0 21.1898 0 19.9502V4.9502C0 3.71061 0.440104 2.65072 1.32031 1.77051C2.20052 0.890299 3.26042 0.450195 4.5 0.450195H19.5C20.7396 0.450195 21.7995 0.890299 22.6797 1.77051C23.5599 2.65072 24 3.71061 24 4.9502Z" fill="white"/>
</svg>
