<svg width="24" height="25" viewBox="0 0 24 25" fill="none" xmlns="http://www.w3.org/2000/svg">
<path d="M14.3594 18.8096V16.3564C14.3594 15.8356 14.2083 15.5752 13.9062 15.5752C13.7292 15.5752 13.5573 15.6585 13.3906 15.8252V19.3252C13.5573 19.4919 13.7292 19.5752 13.9062 19.5752C14.2083 19.5752 14.3594 19.32 14.3594 18.8096ZM17.2344 16.9033H18.2656V16.3721C18.2656 15.8408 18.0938 15.5752 17.75 15.5752C17.4062 15.5752 17.2344 15.8408 17.2344 16.3721V16.9033ZM8.3125 12.7471V13.8408H7.0625V20.4502H5.90625V13.8408H4.6875V12.7471H8.3125ZM11.4531 14.7158V20.4502H10.4062V19.8252C10 20.2939 9.60417 20.5283 9.21875 20.5283C8.875 20.5283 8.65625 20.3825 8.5625 20.0908C8.5 19.9137 8.46875 19.6325 8.46875 19.2471V14.7158H9.5V18.9346C9.5 19.1846 9.50521 19.32 9.51562 19.3408C9.52604 19.4971 9.60417 19.5752 9.75 19.5752C9.95833 19.5752 10.1771 19.4137 10.4062 19.0908V14.7158H11.4531ZM15.3906 16.4502V18.7314C15.3906 19.2731 15.3542 19.6533 15.2812 19.8721C15.1562 20.3096 14.8802 20.5283 14.4531 20.5283C14.0885 20.5283 13.7344 20.3148 13.3906 19.8877V20.4502H12.3438V12.7471H13.3906V15.2627C13.724 14.846 14.0781 14.6377 14.4531 14.6377C14.8802 14.6377 15.1562 14.8564 15.2812 15.2939C15.3542 15.5127 15.3906 15.8981 15.3906 16.4502ZM19.3125 18.4658V18.6064C19.3125 18.9085 19.3021 19.1325 19.2812 19.2783C19.25 19.5075 19.1719 19.7158 19.0469 19.9033C18.7656 20.32 18.349 20.5283 17.7969 20.5283C17.2552 20.5283 16.8333 20.3304 16.5312 19.9346C16.3125 19.6533 16.2031 19.2054 16.2031 18.5908V16.5752C16.2031 15.9606 16.3073 15.5127 16.5156 15.2314C16.8177 14.8356 17.2344 14.6377 17.7656 14.6377C18.2969 14.6377 18.7031 14.8356 18.9844 15.2314C19.2031 15.5335 19.3125 15.9814 19.3125 16.5752V17.7627H17.2344V18.7783C17.2344 19.3096 17.4115 19.5752 17.7656 19.5752C18.0156 19.5752 18.1719 19.4398 18.2344 19.1689C18.2344 19.1585 18.237 19.1221 18.2422 19.0596C18.2474 18.9971 18.25 18.9111 18.25 18.8018V18.4658H19.3125ZM12.2656 5.59082V8.02832C12.2656 8.55957 12.099 8.8252 11.7656 8.8252C11.4323 8.8252 11.2656 8.55957 11.2656 8.02832V5.59082C11.2656 5.04915 11.4323 4.77832 11.7656 4.77832C12.099 4.77832 12.2656 5.04915 12.2656 5.59082ZM20.5938 16.7314C20.5938 14.8877 20.4948 13.5335 20.2969 12.6689C20.1927 12.2106 19.9688 11.8278 19.625 11.5205C19.2812 11.2132 18.8854 11.0335 18.4375 10.9814C17.0208 10.8252 14.875 10.7471 12 10.7471C9.13542 10.7471 6.99479 10.8252 5.57812 10.9814C5.11979 11.0335 4.72135 11.2132 4.38281 11.5205C4.04427 11.8278 3.82292 12.2106 3.71875 12.6689C3.51042 13.5752 3.40625 14.9294 3.40625 16.7314C3.40625 18.5648 3.51042 19.9189 3.71875 20.7939C3.82292 21.2419 4.04427 21.6221 4.38281 21.9346C4.72135 22.2471 5.11458 22.4294 5.5625 22.4814C6.98958 22.6377 9.13542 22.7158 12 22.7158C14.8646 22.7158 17.0104 22.6377 18.4375 22.4814C18.8854 22.4294 19.2786 22.2471 19.6172 21.9346C19.9557 21.6221 20.1771 21.2419 20.2812 20.7939C20.4896 19.9189 20.5938 18.5648 20.5938 16.7314ZM8.79688 6.55957L10.2031 1.93457H9.03125L8.23438 4.98145L7.40625 1.93457H6.1875C6.26042 2.17415 6.38021 2.53353 6.54688 3.0127L6.92188 4.09082C7.28646 5.16374 7.52604 5.98665 7.64062 6.55957V9.7002H8.79688V6.55957ZM13.3125 7.8252V5.79395C13.3125 5.18978 13.2031 4.73665 12.9844 4.43457C12.6823 4.03874 12.276 3.84082 11.7656 3.84082C11.2344 3.84082 10.8281 4.03874 10.5469 4.43457C10.3281 4.73665 10.2188 5.18978 10.2188 5.79395V7.8252C10.2188 8.42936 10.3281 8.88249 10.5469 9.18457C10.8281 9.5804 11.2344 9.77832 11.7656 9.77832C12.276 9.77832 12.6823 9.5804 12.9844 9.18457C13.2031 8.90332 13.3125 8.4502 13.3125 7.8252ZM16.1406 9.7002H17.1875V3.91895H16.1406V8.34082C15.9115 8.66374 15.6927 8.8252 15.4844 8.8252C15.3281 8.8252 15.2448 8.74186 15.2344 8.5752C15.224 8.55436 15.2188 8.41895 15.2188 8.16895V3.91895H14.1719V8.49707C14.1719 8.88249 14.2031 9.16895 14.2656 9.35645C14.3802 9.6377 14.6042 9.77832 14.9375 9.77832C15.3125 9.77832 15.7135 9.54395 16.1406 9.0752V9.7002ZM24 4.9502V19.9502C24 21.1898 23.5599 22.2497 22.6797 23.1299C21.7995 24.0101 20.7396 24.4502 19.5 24.4502H4.5C3.26042 24.4502 2.20052 24.0101 1.32031 23.1299C0.440104 22.2497 0 21.1898 0 19.9502V4.9502C0 3.71061 0.440104 2.65072 1.32031 1.77051C2.20052 0.890299 3.26042 0.450195 4.5 0.450195H19.5C20.7396 0.450195 21.7995 0.890299 22.6797 1.77051C23.5599 2.65072 24 3.71061 24 4.9502Z" fill="white"/>
</svg>
